<svg width="24" height="24" viewBox="0 0 24 24" fill="none" xmlns="http://www.w3.org/2000/svg">
<g clip-path="url(#clip0_1563_2740)">
<path d="M12.006 0.181816C7.07127 0.181816 5.62805 0.186907 5.34751 0.210179C4.33481 0.294358 3.70465 0.453808 3.01812 0.795616C2.48905 1.05834 2.07179 1.36287 1.65998 1.78977C0.910006 2.56829 0.455474 3.52608 0.290934 4.66459C0.210936 5.2173 0.187664 5.33002 0.182937 8.15321C0.181119 9.09427 0.182937 10.3328 0.182937 11.994C0.182937 16.9248 0.188391 18.3665 0.212027 18.6465C0.293843 19.632 0.448384 20.2519 0.775646 20.9301C1.40108 22.2282 2.59559 23.2028 4.00282 23.5664C4.49008 23.6918 5.02825 23.7609 5.71913 23.7936C6.01185 23.8064 8.9954 23.8155 11.9808 23.8155C14.9661 23.8155 17.9515 23.8118 18.2369 23.7973C19.0369 23.7596 19.5014 23.6973 20.0151 23.5646C21.4314 23.1991 22.6041 22.2391 23.2422 20.9228C23.5631 20.261 23.7259 19.6174 23.7995 18.6834C23.8155 18.4798 23.8222 15.2332 23.8222 11.9909C23.8222 8.7481 23.815 5.50747 23.799 5.30384C23.7244 4.35478 23.5617 3.71662 23.2304 3.04209C22.9586 2.48993 22.6568 2.07758 22.2186 1.65595C21.4367 0.909067 20.4803 0.454535 19.3407 0.290176C18.7886 0.210361 18.6786 0.186725 15.8532 0.181816H12.006Z" fill="url(#paint0_radial_1563_2740)"/>
<path d="M12.006 0.181816C7.07127 0.181816 5.62805 0.186907 5.34751 0.210179C4.33481 0.294358 3.70465 0.453808 3.01812 0.795616C2.48905 1.05834 2.07179 1.36287 1.65998 1.78977C0.910006 2.56829 0.455474 3.52608 0.290934 4.66459C0.210936 5.2173 0.187664 5.33002 0.182937 8.15321C0.181119 9.09427 0.182937 10.3328 0.182937 11.994C0.182937 16.9248 0.188391 18.3665 0.212027 18.6465C0.293843 19.632 0.448384 20.2519 0.775646 20.9301C1.40108 22.2282 2.59559 23.2028 4.00282 23.5664C4.49008 23.6918 5.02825 23.7609 5.71913 23.7936C6.01185 23.8064 8.9954 23.8155 11.9808 23.8155C14.9661 23.8155 17.9515 23.8118 18.2369 23.7973C19.0369 23.7596 19.5014 23.6973 20.0151 23.5646C21.4314 23.1991 22.6041 22.2391 23.2422 20.9228C23.5631 20.261 23.7259 19.6174 23.7995 18.6834C23.8155 18.4798 23.8222 15.2332 23.8222 11.9909C23.8222 8.7481 23.815 5.50747 23.799 5.30384C23.7244 4.35478 23.5617 3.71662 23.2304 3.04209C22.9586 2.48993 22.6568 2.07758 22.2186 1.65595C21.4367 0.909067 20.4803 0.454535 19.3407 0.290176C18.7886 0.210361 18.6786 0.186725 15.8532 0.181816H12.006Z" fill="url(#paint1_radial_1563_2740)"/>
<path d="M12.0002 3.27263C9.63009 3.27263 9.33264 3.28299 8.40176 3.32535C7.4727 3.3679 6.83853 3.51499 6.28364 3.7308C5.70966 3.9537 5.22277 4.25187 4.73769 4.73713C4.25225 5.22221 3.95408 5.7091 3.73045 6.2829C3.51409 6.83797 3.36682 7.47232 3.325 8.40102C3.28337 9.3319 3.27246 9.62953 3.27246 11.9996C3.27246 14.3697 3.28301 14.6663 3.32519 15.5972C3.36791 16.5262 3.515 17.1604 3.73063 17.7153C3.95371 18.2893 4.25189 18.7762 4.73714 19.2612C5.22204 19.7467 5.70893 20.0456 6.28255 20.2685C6.83781 20.4843 7.47215 20.6314 8.40103 20.6739C9.33191 20.7163 9.62918 20.7266 11.9991 20.7266C14.3694 20.7266 14.6659 20.7163 15.5968 20.6739C16.5259 20.6314 17.1608 20.4843 17.716 20.2685C18.2898 20.0456 18.776 19.7467 19.2609 19.2612C19.7463 18.7762 20.0445 18.2893 20.2681 17.7155C20.4827 17.1604 20.6299 16.526 20.6736 15.5973C20.7154 14.6665 20.7263 14.3697 20.7263 11.9996C20.7263 9.62953 20.7154 9.33208 20.6736 8.4012C20.6299 7.47214 20.4827 6.83797 20.2681 6.28308C20.0445 5.7091 19.7463 5.22221 19.2609 4.73713C18.7754 4.25169 18.29 3.95352 17.7155 3.7308C17.1591 3.51499 16.5246 3.3679 15.5955 3.32535C14.6647 3.28299 14.3683 3.27263 11.9975 3.27263H12.0002ZM11.2173 4.84531C11.4497 4.84494 11.7089 4.84531 12.0002 4.84531C14.3303 4.84531 14.6065 4.85367 15.5266 4.89549C16.3775 4.9344 16.8393 5.07657 17.1469 5.19602C17.5542 5.3542 17.8446 5.54329 18.1498 5.84873C18.4553 6.15418 18.6444 6.44508 18.8029 6.85234C18.9224 7.1596 19.0647 7.62141 19.1034 8.47229C19.1453 9.39226 19.1543 9.66862 19.1543 11.9976C19.1543 14.3267 19.1453 14.603 19.1034 15.523C19.0645 16.3739 18.9224 16.8357 18.8029 17.1429C18.6447 17.5502 18.4553 17.8402 18.1498 18.1454C17.8444 18.4509 17.5544 18.64 17.1469 18.7982C16.8397 18.9182 16.3775 19.06 15.5266 19.0989C14.6067 19.1407 14.3303 19.1498 12.0002 19.1498C9.6699 19.1498 9.39373 19.1407 8.47376 19.0989C7.62287 19.0596 7.16107 18.9174 6.85326 18.798C6.446 18.6398 6.1551 18.4507 5.84966 18.1453C5.54421 17.8398 5.35513 17.5497 5.19658 17.1422C5.07713 16.8349 4.93477 16.3731 4.89605 15.5223C4.85423 14.6023 4.84587 14.3259 4.84587 11.9955C4.84587 9.66498 4.85423 9.39008 4.89605 8.47011C4.93496 7.61922 5.07713 7.15742 5.19658 6.84979C5.35476 6.44253 5.54421 6.15163 5.84966 5.84619C6.1551 5.54074 6.446 5.35166 6.85326 5.19312C7.16089 5.07312 7.62287 4.93131 8.47376 4.89222C9.27882 4.85585 9.59082 4.84494 11.2173 4.84313V4.84531ZM16.6586 6.29435C16.0804 6.29435 15.6114 6.76289 15.6114 7.34123C15.6114 7.9194 16.0804 8.38847 16.6586 8.38847C17.2368 8.38847 17.7058 7.9194 17.7058 7.34123C17.7058 6.76307 17.2368 6.29399 16.6586 6.29399V6.29435ZM12.0002 7.51795C9.52518 7.51795 7.51851 9.52462 7.51851 11.9996C7.51851 14.4747 9.52518 16.4804 12.0002 16.4804C14.4752 16.4804 16.4812 14.4747 16.4812 11.9996C16.4812 9.52462 14.475 7.51795 12 7.51795H12.0002ZM12.0002 9.09063C13.6067 9.09063 14.9092 10.393 14.9092 11.9996C14.9092 13.6061 13.6067 14.9086 12.0002 14.9086C10.3935 14.9086 9.09119 13.6061 9.09119 11.9996C9.09119 10.393 10.3935 9.09063 12.0002 9.09063V9.09063Z" fill="white"/>
</g>
<defs>
<radialGradient id="paint0_radial_1563_2740" cx="0" cy="0" r="1" gradientUnits="userSpaceOnUse" gradientTransform="translate(6.46156 25.6358) rotate(-90) scale(23.4227 21.7909)">
<stop stop-color="#FFDD55"/>
<stop offset="0.1" stop-color="#FFDD55"/>
<stop offset="0.5" stop-color="#FF543E"/>
<stop offset="1" stop-color="#C837AB"/>
</radialGradient>
<radialGradient id="paint1_radial_1563_2740" cx="0" cy="0" r="1" gradientUnits="userSpaceOnUse" gradientTransform="translate(-3.77771 1.88434) rotate(78.6776) scale(10.4701 43.1693)">
<stop stop-color="#3771C8"/>
<stop offset="0.128" stop-color="#3771C8"/>
<stop offset="1" stop-color="#6600FF" stop-opacity="0"/>
</radialGradient>
<clipPath id="clip0_1563_2740">
<rect width="24" height="23.9993" fill="white"/>
</clipPath>
</defs>
</svg>
