<svg width="233" height="60" viewBox="0 0 233 60" fill="none" xmlns="http://www.w3.org/2000/svg">
<circle cx="30" cy="30" r="30" fill="url(#paint0_radial_1563_2761)"/>
<circle cx="30" cy="30" r="30" fill="url(#paint1_radial_1563_2761)"/>
<path fill-rule="evenodd" clip-rule="evenodd" d="M30.4998 21.4872C33.1199 21.4872 35.2439 19.3634 35.2439 16.7436C35.2439 14.1238 33.1199 12 30.4998 12C27.8797 12 25.7557 14.1238 25.7557 16.7436C25.7557 19.3634 27.8797 21.4872 30.4998 21.4872ZM30.4998 49C28.7912 49 28.2226 48.6205 27.6407 44.4675C27.2319 41.5497 26.8883 39.1908 26.5744 37.0358C26.3884 35.7589 26.2128 34.5537 26.0403 33.3462C25.5659 30.0256 25.1902 29.3926 21.5808 27.559C17.9715 25.7254 13.0414 22.0564 11.9898 20.3065C11.3335 18.8308 12.3772 18.1667 15.1223 19.8314C18.9111 22.1603 24.9943 24.3333 30.4998 24.3333C36.0053 24.3333 42.0885 22.1603 45.8773 19.8314C48.6224 18.1667 49.6661 18.8308 49.0097 20.3065C47.9582 22.0564 43.0281 25.7254 39.4188 27.559C35.8094 29.3926 35.4337 30.0256 34.9593 33.3462C34.7868 34.5536 34.6112 35.7589 34.4252 37.0358L34.4252 37.0359C34.1113 39.1908 33.7677 41.5497 33.3589 44.4675C32.777 48.6205 32.2084 49 30.4998 49Z" fill="white"/>
<path fill-rule="evenodd" clip-rule="evenodd" d="M143.671 20.5625C144.622 20.5625 145.422 20.2402 146.073 19.5957C146.724 18.9512 147.05 18.1797 147.05 17.2813C147.05 16.3828 146.724 15.6113 146.073 14.9668C145.422 14.3223 144.622 14 143.671 14C142.734 14 141.936 14.3223 141.279 14.9668C140.621 15.6113 140.292 16.3828 140.292 17.2813C140.292 18.1797 140.621 18.9512 141.279 19.5957C141.936 20.2402 142.734 20.5625 143.671 20.5625ZM106.456 44.293H99.9914V15.8945H106.456V26.7734H106.632C107.153 25.4453 107.957 24.4232 109.044 23.707C110.131 22.9909 111.463 22.6328 113.038 22.6328C114.588 22.6328 115.909 22.9616 117.003 23.6192C118.097 24.2767 118.937 25.2175 119.523 26.4414C120.109 27.6654 120.402 29.1302 120.402 30.8359V44.293H113.937V32.2031C113.937 30.862 113.621 29.8138 112.989 29.0586C112.358 28.3034 111.443 27.9258 110.245 27.9258C109.477 27.9258 108.81 28.1081 108.243 28.4727C107.677 28.8373 107.237 29.3418 106.925 29.9863C106.612 30.6309 106.456 31.3763 106.456 32.2227V44.293ZM89.6484 44.293H82.9492V21.5391H75V16.1094H97.5977V21.5391H89.6484V44.293ZM124.14 44.293H130.605V32.7695C130.605 31.7799 130.784 30.9401 131.142 30.25C131.5 29.5599 132.021 29.0358 132.704 28.6777C133.388 28.3197 134.218 28.1406 135.195 28.1406C135.624 28.1406 136.031 28.1732 136.415 28.2383C136.799 28.3034 137.141 28.388 137.441 28.4922V22.9063C137.18 22.8281 136.897 22.7663 136.591 22.7207C136.285 22.6751 135.963 22.6524 135.624 22.6524C134.348 22.6524 133.287 23.0072 132.441 23.7168C131.594 24.4264 131.021 25.4258 130.722 26.7149H130.566V23.082H124.14V44.293ZM140.429 44.293V23.082H146.913V44.293H140.429ZM164.14 44.293H156.718L149.53 23.082H156.484L160.448 38.7266H160.605L164.511 23.082H171.269L164.14 44.293ZM178.107 31.2852C178.191 30.6761 178.345 30.1325 178.57 29.6543C178.928 28.8926 179.42 28.3099 180.045 27.9063C180.67 27.5026 181.392 27.3008 182.213 27.3008C183.046 27.3008 183.772 27.4961 184.39 27.8867C185.009 28.2774 185.49 28.8568 185.836 29.625C186.054 30.1107 186.203 30.6641 186.283 31.2852H178.107ZM192.427 35.1914H178.035L178.038 35.2772C178.069 36.217 178.246 37.0315 178.57 37.7207C178.928 38.4824 179.436 39.0651 180.093 39.4688C180.751 39.8724 181.535 40.0742 182.447 40.0742C183.215 40.0742 183.869 39.9538 184.41 39.7129C184.95 39.472 185.383 39.179 185.709 38.834C186.034 38.4889 186.256 38.1537 186.373 37.8281L186.392 37.7305H192.271L192.232 37.9649C192.063 38.707 191.757 39.472 191.314 40.2598C190.871 41.0475 190.256 41.78 189.468 42.457C188.681 43.1341 187.701 43.6842 186.529 44.1074C185.357 44.5306 183.957 44.7422 182.33 44.7422C180.116 44.7422 178.215 44.2962 176.627 43.4043C175.038 42.5124 173.817 41.2429 172.964 39.5957C172.112 37.9486 171.685 35.9857 171.685 33.707L171.686 33.5799C171.699 31.3597 172.125 29.436 172.964 27.8086C173.817 26.1549 175.022 24.8789 176.578 23.9805C178.134 23.082 179.966 22.6328 182.076 22.6328C184.198 22.6328 186.031 23.0723 187.574 23.9512C189.117 24.8301 190.311 26.0638 191.158 27.6524C192.004 29.2409 192.427 31.1094 192.427 33.2578V35.1914ZM196.851 44.293H203.55V16.1094H196.851V44.293ZM225.923 32.8625H226.11V16.1909H232.81V44.295H227.142L215.34 27.4676H215.145V44.295H208.465V16.1909H214.171L225.923 32.8625Z" fill="black"/>
<defs>
<radialGradient id="paint0_radial_1563_2761" cx="0" cy="0" r="1" gradientUnits="userSpaceOnUse" gradientTransform="translate(37.6344 60) rotate(-109.2) scale(38.5373)">
<stop stop-color="#D700FF"/>
<stop offset="1" stop-color="#FFBE00"/>
</radialGradient>
<radialGradient id="paint1_radial_1563_2761" cx="0" cy="0" r="1" gradientUnits="userSpaceOnUse" gradientTransform="translate(6.24687 55.7016) rotate(-108.561) scale(50.5679)">
<stop stop-color="#00E4FF"/>
<stop offset="1" stop-color="#FFBE00" stop-opacity="0.01"/>
</radialGradient>
</defs>
</svg>
